<?xml version="1.0" encoding="utf-8"?>
<!-- Generator: Adobe Illustrator 24.0.2, SVG Export Plug-In . SVG Version: 6.00 Build 0)  -->
<svg version="1.1" id="Capa_1" xmlns="http://www.w3.org/2000/svg" xmlns:xlink="http://www.w3.org/1999/xlink" x="0px" y="0px"
	 viewBox="0 0 3 3" style="enable-background:new 0 0 3 3;" xml:space="preserve">
<style type="text/css">
	.st0{fill:#FFFFFF;}
</style>
<path class="st0" d="M2.9,2.4L2.4,1.9c0.1-0.2,0.2-0.4,0.2-0.7C2.6,0.6,2,0,1.3,0S0,0.6,0,1.3C0,2,0.6,2.6,1.3,2.6
	c0.2,0,0.5-0.1,0.7-0.2l0.5,0.5C2.6,3,2.8,3,2.9,2.9S3,2.6,2.9,2.4z M0.3,1.3c0-0.5,0.4-1,1-1s1,0.4,1,1s-0.4,1-1,1S0.3,1.8,0.3,1.3
	z"/>
</svg>
